<svg width="16" height="16" viewBox="0 0 16 16" fill="none" xmlns="http://www.w3.org/2000/svg">
<path fill-rule="evenodd" clip-rule="evenodd" d="M0 8C0 3.58172 3.58172 0 8 0C12.4183 0 16 3.58172 16 8C16 12.4183 12.4183 16 8 16C3.58172 16 0 12.4183 0 8ZM8 2C4.68629 2 2 4.68629 2 8C2 11.3137 4.68629 14 8 14C11.3137 14 14 11.3137 14 8C14 4.68629 11.3137 2 8 2Z" fill="white" fill-opacity="0.48"/>
<path fill-rule="evenodd" clip-rule="evenodd" d="M7.29289 0.292893C7.48043 0.105357 7.73478 0 8 0C9.51809 0 11.0048 0.431942 12.2866 1.24538C13.5684 2.05881 14.5922 3.22015 15.2386 4.59376C15.885 5.96737 16.1272 7.49654 15.9369 9.00266C15.7467 10.5088 15.1318 11.9297 14.1641 13.0994C13.9951 13.3037 13.7517 13.4326 13.4877 13.4575C13.2237 13.4825 12.9605 13.4015 12.7562 13.2325L7.36258 8.77051C7.13294 8.58054 7 8.29804 7 8V1C7 0.734783 7.10536 0.48043 7.29289 0.292893ZM9 2.08392L9 7.52944L13.1958 11.0005C13.5936 10.3118 13.8522 9.54773 13.9527 8.752C14.0954 7.62241 13.9137 6.47553 13.429 5.44532C12.9442 4.41512 12.1763 3.54411 11.215 2.93403C10.5378 2.50427 9.78426 2.21649 9 2.08392Z" fill="white"/>
</svg>
