<svg width="40" height="40" viewBox="0 0 40 40" fill="none" xmlns="http://www.w3.org/2000/svg">
<path d="M18.7321 32.501C19.5159 35.3004 18.2424 35.9998 17.2624 36C16.2825 36.0002 14.8129 36.0002 12.8531 29.5016C10.4037 18.0043 13.343 10.0065 20.2018 6.00719C23.176 4.27297 26.2405 4.02532 28.3827 4.00204C29.1261 3.99397 29.6099 4.78752 29.2773 5.45236C27.7715 8.46205 25 14 25 14C25 14 27 20 24 20C20 20 17 23 17 27C17 29 18 31 18.7321 32.501Z" fill="#ED8936"/>
<circle cx="24" cy="27" r="3" fill="#ED8936"/>
</svg>
